<svg width="347" height="519" viewBox="0 0 347 519" fill="none" xmlns="http://www.w3.org/2000/svg">
<path fill-rule="evenodd" clip-rule="evenodd" d="M41.948 306.378C48.0042 277.681 69.4821 255.411 98.3682 244.318C103.92 241.177 109.303 227.699 116.765 225.231C117.962 224.835 116.073 227.983 116.765 228.171C119.233 228.842 121.998 228.912 124.723 226.491C129.593 222.161 131.121 209.513 134.082 203.796C149.697 173.648 188.685 185.444 193.908 218.772C197.55 221.147 202.699 223.238 206.663 225.152C210.745 227.122 214.337 231.894 218.543 233.601C222.296 235.123 228.482 234.044 232.264 235.371C249.661 241.475 264.395 249.177 275.947 264.782C278.381 268.073 281.125 272.12 283.34 275.445C294.759 288.594 302.692 303.332 309.997 319.143C330.435 365.553 335.995 416.94 340.982 466.945C340.869 475.694 346.673 499.955 338.088 504.149C338.602 504.681 338.416 505.75 337.464 505.741C315.696 505.521 293.978 507.47 272.548 511.257C262.208 513.086 251.925 515.592 241.392 516.005C219.529 515.853 197.744 512.189 175.91 515.656C149.661 515.656 117.762 514.892 88.5612 513.769C61.2701 512.72 33.8327 515.089 6.8797 510.447C4.74623 510.11 3.70435 507.506 4.15156 505.642C7.31379 494.116 8.8661 482.255 10.6405 470.459C10.2871 462.892 10.9194 454.993 13.7177 447.946C21.0291 400.372 30.4046 353.108 41.948 306.378Z" fill="#FFDBB4"/>
<path fill-rule="evenodd" clip-rule="evenodd" d="M116.765 228.347C116.073 228.158 117.962 225.009 116.765 225.405C109.303 227.873 103.92 241.352 98.3682 244.493C69.4821 255.586 48.0042 277.855 41.948 306.553C30.4046 353.282 21.029 400.546 13.7177 448.121C10.9193 455.169 10.2871 463.067 10.6405 470.633L10.3619 472.496C8.69826 483.677 7.14743 494.897 4.15155 505.816C3.70437 507.682 4.74622 510.284 6.87969 510.621C33.5264 515.211 60.6466 512.947 87.6307 513.908L93.2551 514.119C121.149 515.145 151.062 515.831 175.91 515.831C197.744 512.363 219.529 516.028 241.392 516.179C251.925 515.766 262.208 513.26 272.548 511.432C293.978 507.644 315.696 505.696 337.464 505.915C338.416 505.924 338.602 504.856 338.088 504.323C346.673 500.129 340.869 475.869 340.982 467.12L340.532 462.615C335.647 414.036 329.822 364.336 309.997 319.317L309.403 318.037C302.261 302.71 294.451 288.413 283.34 275.619L282.661 274.602C280.58 271.492 278.137 267.919 275.947 264.956C264.395 249.352 249.661 241.65 232.264 235.546C228.482 234.218 222.296 235.297 218.543 233.775C214.608 232.179 211.213 227.901 207.449 225.742V241.845L153 295.495L122.118 248.13L118.976 228.732C118.22 228.685 117.48 228.541 116.765 228.347Z" fill="#8FA7DF"/>
<path fill-rule="evenodd" clip-rule="evenodd" d="M50.7556 368.912C51.3315 371.709 52.1386 374.506 53.2119 377.156C54.2459 379.713 55.8036 382.004 56.8763 384.531C57.0203 384.871 57.256 385.128 57.54 385.324L57.4514 386.012L57.3698 386.7C56.8347 391.338 56.2328 395.963 55.7116 400.6L55.4584 402.92C54.4336 412.603 52.8148 422.24 51.5584 431.897C50.328 441.353 49.0755 450.81 47.7364 460.253C46.3534 469.989 44.9442 479.712 43.2994 489.408C42.6049 493.503 41.8802 497.595 41.1252 501.684L40.542 504.813C34.5386 506.257 32.8981 514.627 39.0106 517.717C41.785 519.113 45.3495 518.777 47.6361 516.583C50.0123 514.295 50.1108 510.171 50.6624 507.073L51.1936 504.194C55.1688 482.547 58.6189 460.652 60.2319 438.699C60.6464 433.031 60.9953 427.358 61.2223 421.68C61.4378 416.34 61.3348 411 61.4173 405.66L61.4448 404.203C61.5708 398.508 61.4666 392.822 61.3183 387.127C61.3008 386.433 61.2702 385.739 61.2353 385.041C61.4356 384.806 61.5799 384.526 61.6406 384.256L61.7196 383.898C61.9159 382.977 61.6934 381.899 60.9862 381.24C60.6813 377.361 60.2798 373.486 60.1708 369.61C60.1621 369.292 59.704 369.301 59.6773 369.61C59.4199 372.909 58.9056 376.217 58.3906 379.521C55.0793 376.859 52.6317 372.468 51.1875 368.794C51.0828 368.528 50.6941 368.624 50.7556 368.912ZM129.105 214.682C128.556 217.196 127.468 219.453 126.012 221.551C125.318 222.555 124.529 223.489 123.582 224.27C122.77 224.938 121.845 225.374 120.981 225.955C119.725 225.758 118.412 226.234 117.53 227.159L117.67 225.806C117.714 225.37 116.989 225.283 116.906 225.705C113.088 244.96 109.608 264.227 106.595 283.621L105.273 292.185L104.031 300.225C101.967 313.623 99.971 327.015 98.4682 340.511C96.4656 358.522 94.7819 376.579 93.5516 394.663C92.3169 412.874 91.5573 431.098 91.0163 449.343C90.8814 453.944 90.7371 458.538 90.5979 463.138L89.6659 457.639C88.7359 452.139 87.8238 446.634 87.0421 441.109C84.2368 421.336 81.9937 401.423 80.8991 381.48C79.8952 363.23 80.2311 344.618 84.8733 326.839C86.0429 322.367 87.474 317.963 89.2013 313.673C90.8771 309.501 93.1629 305.635 94.9652 301.525C97.0594 296.742 97.6876 292.229 96.6095 287.08C95.6672 282.594 94.0136 278.374 93.7173 273.757C93.1629 265.186 95.9512 256.885 99.8905 249.385C100.929 247.408 102.024 245.457 103.168 243.524C106.627 237.68 110.527 232.05 114.576 226.653C114.794 226.365 114.332 226.046 114.096 226.282C110.406 229.931 106.37 233.518 103.049 237.502C101.435 239.439 99.8603 241.416 98.3683 243.446C81.9981 246.182 67.932 256.379 58.3166 269.847C47.405 285.129 41.8858 303.524 37.8017 321.637C33.2599 341.769 29.4293 362.083 25.35 382.313C21.1271 403.248 16.9256 424.182 12.6761 445.11C10.5645 455.5 8.45234 465.891 6.34555 476.286C5.27656 481.549 4.15486 486.799 2.9817 492.044C2.37918 494.732 1.73346 497.417 1.17501 500.114C0.547188 503.155 1.13179 505.1 3.19066 507.335C3.95026 508.165 5.15008 508.151 6.0925 507.711L6.38701 507.572L6.67175 507.434C7.83792 506.861 8.75209 506.268 9.47765 504.991C10.2765 503.592 10.4031 502.038 10.6774 500.48C11.1839 497.612 11.6853 494.745 12.1914 491.874C12.9476 487.58 13.7698 483.298 14.6067 479.018L18.8054 457.624C19.9251 451.921 21.0464 446.217 22.1742 440.516C26.2012 420.127 30.2325 399.743 34.2634 379.359C38.1338 359.787 41.5586 340.08 45.9648 320.621L46.2153 319.525L46.47 318.43C50.4101 301.654 55.915 285.427 65.9037 271.213C73.5912 260.281 84.2669 250.519 96.8413 245.579C95.9551 246.854 95.1043 248.154 94.2928 249.481C89.197 257.807 85.4758 267.691 86.3484 277.606C86.7755 282.45 88.6167 287.211 88.4426 292.095C88.2812 296.432 85.5975 300.242 83.7433 304.016C79.5336 312.57 76.4877 321.66 74.5244 330.985C70.5848 349.711 70.5978 368.978 71.9551 387.987C73.4298 408.65 76.2304 429.309 79.4197 449.771C81.0557 460.265 83.2328 470.674 84.8999 481.152C85.7241 486.318 86.8458 491.473 87.8274 496.614L88.2953 499.069C88.5572 500.433 88.829 501.791 89.1429 503.135L89.3366 503.94V504.084C89.3453 505.075 89.6163 505.895 90.0525 506.55C90.6498 508.465 91.3915 510.334 92.3775 512.127C92.8837 513.043 93.617 513.557 94.4154 513.746C95.2182 515.584 97.0375 516.997 99.2098 516.988L127.783 516.879C144.38 516.814 160.976 516.705 177.572 516.612C181.76 516.591 185.945 516.513 190.128 516.403C194.051 516.294 197.812 515.823 201.69 515.335C206.071 514.785 208.444 511.681 207.789 507.305C207.646 506.34 207.489 505.381 207.34 504.42C208.213 504.709 209.251 504.573 209.954 503.888L210.613 503.243C211.526 502.34 212.341 501.453 212.921 500.248C213.518 499.009 214.003 497.7 214.531 496.434C215.669 493.711 216.778 490.979 217.856 488.234C220.015 482.745 222.175 477.233 224.181 471.686C228.156 460.702 231.673 449.552 234.731 438.276C240.184 418.159 244.129 397.653 246.616 376.964L247.211 372.033L247.383 370.576C248.327 362.557 249.12 354.414 248.745 346.411C248.513 341.402 247.737 336.353 245.865 331.674C244.138 327.359 241.472 323.667 238.937 319.809L238.648 319.364L238.356 318.908C236.139 315.404 234.375 311.741 234.287 307.486C234.196 303.168 235.455 298.966 236.861 294.923L237.212 293.926L237.447 293.265C240.438 284.911 243.843 276.674 242.72 267.582C241.062 254.194 232.947 243.402 222.737 235.08C231.817 236.877 240.804 240.43 248.736 244.933C258.103 250.257 266.537 257.283 273.81 265.212C287.553 280.197 297.365 298.177 305.398 316.742C313.805 336.17 320.039 356.527 324.738 377.152C329.463 397.893 332.626 418.966 334.786 440.123C335.863 450.652 336.71 461.208 337.412 471.769C337.77 477.181 338.04 482.601 338.459 488.003C338.879 493.401 339.067 498.882 340.384 504.137C340.999 506.585 345.148 506.834 345.593 504.137C346.579 498.114 346.303 491.885 346.028 485.786L346.003 485.232C345.732 479.158 345.379 473.088 344.961 467.018C344.106 454.611 342.963 442.221 341.47 429.872C336.239 386.52 326.593 343.396 307.67 303.824C298.761 285.186 287.326 267.076 271.419 253.617C263.845 247.216 255.307 242.105 246.106 238.405C237.876 235.093 229.517 233.526 220.774 233.53C216.389 230.17 211.681 227.242 206.979 224.742C206.696 224.589 206.399 224.956 206.634 225.191C206.756 225.308 206.874 225.43 206.996 225.545C206.464 225.579 205.914 225.828 205.422 226.348C203.693 228.159 202.236 230.423 200.932 232.775C198.947 235.254 197.053 237.816 195.072 240.268C191.9 244.195 188.655 248.066 185.369 251.906C179.851 258.36 174.153 264.692 168.211 270.769L167.22 271.78C164.139 274.9 161.02 278.635 157.377 281.105L157.183 281.234C155.645 282.236 154.556 282.419 153.245 280.923C152.053 279.561 151.062 277.981 150.042 276.48L149.806 276.136C144.602 268.573 139.777 260.731 135.409 252.658C133.418 248.984 131.525 245.256 129.728 241.488L129.192 240.355C128.215 238.279 127.155 236.24 126.348 234.102C126.16 233.601 125.977 233.099 125.798 232.601C128.546 230.799 130.675 226.898 131.447 223.843C132.25 220.67 131.844 217.414 130.414 214.512C130.144 213.967 129.236 214.102 129.105 214.682ZM264.7 343.605C265.08 355.667 265.311 367.742 265.878 379.796L266.074 383.91C265.189 384.897 264.669 386.036 265.084 387.598C265.246 388.197 265.721 388.737 266.314 388.939L266.5 392.764C267.342 409.978 268.328 427.155 270.132 444.325C272.388 465.813 274.997 487.265 277.601 508.715C277.972 511.752 280.084 514.16 283.369 513.716C286.693 513.266 288.041 510.372 287.605 507.357C285.89 495.527 284.242 483.687 282.797 471.817L281.153 458.295C279.09 441.39 276.979 424.488 274.547 407.637C273.531 400.595 272.475 393.555 271.415 386.516L271.785 386.036C273.3 384.068 274.866 382.143 276.415 380.207C279.389 376.47 282.326 372.766 285.053 368.855C285.188 368.659 284.913 368.371 284.717 368.519C280.896 371.343 277.278 374.362 273.639 377.431L270.455 380.127C268.622 367.965 266.807 355.799 265.189 343.605C265.149 343.301 264.691 343.278 264.7 343.605ZM209.723 228.171C212.022 230.34 214.373 232.462 216.691 234.617L217.54 235.411L218.385 236.207C222.456 240.07 226.358 244.09 229.609 248.709C235.578 257.188 239.134 267.525 236.651 277.876C234.591 286.451 229.866 294.224 228.597 303.013C227.96 307.415 228.269 311.841 229.928 316C231.621 320.242 234.325 323.876 236.756 327.704C242.035 336.021 242.755 345.151 242.231 354.787C241.681 364.849 240.525 374.917 239.098 384.889C236.21 405.093 231.856 425.089 226.093 444.67C223.208 454.476 219.802 464.072 216.412 473.707C214.723 478.504 212.755 483.186 210.726 487.846C209.658 490.299 208.562 492.738 207.449 495.172C207.86 491.734 207.86 488.204 208.061 484.787C208.349 479.89 208.715 475.004 209.051 470.111C209.735 460.183 210.346 450.247 210.892 440.31C212.825 404.875 214.247 369.409 214.142 333.918C214.09 316.17 213.728 298.422 212.965 280.691C212.607 272.342 211.913 264 211.287 255.661L211.153 253.876C210.6 246.391 209.937 238.89 208.798 231.471C209.135 230.71 209.428 229.94 209.645 229.15L209.723 228.853L209.666 228.861C209.718 228.629 209.735 228.399 209.723 228.171ZM189.837 197.677C189.788 197.472 189.497 197.489 189.444 197.677C188.148 202.041 188.607 206.84 189.723 211.231C190.325 213.609 191.18 215.918 192.214 218.144L192.576 218.923C193.462 220.817 194.46 222.77 196.184 223.952C196.904 224.444 198.192 224.475 198.912 223.952L199.278 223.673C199.339 223.626 199.399 223.577 199.457 223.528C200.129 222.965 200.46 221.721 200.151 220.901C199.352 218.785 197.541 217.231 196.289 215.346C195.181 213.67 194.2 211.902 193.384 210.065C191.626 206.09 190.836 201.871 189.837 197.677Z" fill="black"/>
<path fill-rule="evenodd" clip-rule="evenodd" d="M159.322 39.4942C134.6 39.4942 109.031 58.7008 99.9699 70.9569C89.4915 85.1287 81.2261 153.161 85.1036 176.245C88.9811 199.33 108.242 224.491 141.677 224.491C175.113 224.491 195.461 220.363 196.278 214.367C196.821 210.37 204.173 197.246 218.33 174.996C232.811 170.914 240.08 163.997 240.137 154.245C240.193 144.494 236.313 137.844 228.497 134.296C231.284 95.8124 229.168 71.5609 222.15 61.5416C211.621 46.5127 184.042 39.4942 159.322 39.4942Z" fill="#FFDBB4"/>
<path fill-rule="evenodd" clip-rule="evenodd" d="M175.99 2.22016C172.665 -1.70156 166.801 2.00537 166.933 6.29081C165.606 6.65089 164.04 7.89344 163.436 9.51317C162.129 9.42824 160.812 9.68849 159.626 10.3688L159.376 10.0598C155.264 5.02772 149.822 0.709575 144.207 4.41534C142.679 5.42385 141.994 7.09055 142.331 8.89715L142.358 9.02502L142.233 8.46726C142.107 7.93732 142.296 8.99772 142.366 9.22206L142.375 9.24757C142.523 9.6254 142.671 9.81562 142.806 10.1013C137.057 6.00747 128.303 8.40385 132.916 16.3285L131.04 15.5953C124.551 13.0814 116.481 10.3821 110.565 14.9017C107.92 17.4516 110.856 20.8515 113.55 21.6757L113.087 21.5981C107.916 20.7179 97.1291 18.5426 95.5879 25.2896C95.0336 27.7172 96.6499 29.4914 98.6894 30.4682C94.3744 30.4523 90.1187 31.1653 86.3849 33.276C82.8333 35.8059 85.7037 39.9924 89.4179 39.8098C88.2664 41.2371 87.8843 43.6525 88.996 45.1942C86.8853 45.7496 84.9381 46.4638 83.1433 47.5774L82.65 47.641C79.0623 48.0896 74.9692 48.3566 72.9956 51.8883C70.0909 59.5514 80.4341 59.2462 84.8737 56.5547C84.6103 56.9839 84.4148 57.4525 84.3053 57.953L82.8667 58.3576C77.4394 59.8706 71.297 61.5422 67.8027 66.1206C66.2011 68.7554 68.43 73.2329 71.7788 72.4328C62.7042 76.7646 66.1823 88.176 75.0571 82.2398C75.4721 82.6249 75.977 82.9109 76.5058 83.0372L74.6331 84.0548C69.8766 86.665 64.1564 90.2383 65.1496 96.1642C66.0942 99.3003 70.4344 98.7272 72.6404 97.5271C68.786 100.849 65.1492 104.446 61.8455 108.335L60.9312 109.425C58.3619 112.512 53.892 118.194 58.7339 121.163C64.703 124.208 67.678 115.216 71.1497 112.007C68.3739 118.553 77.3983 123.119 80.5482 116.525C81.0773 116.618 81.6093 116.628 82.1306 116.557C79.4149 119.442 72.0702 139.185 81.2061 134.855C82.6609 133.313 83.9378 131.626 85.1116 129.856C83.6449 141.168 82.5721 152.533 81.8784 163.906L81.6315 168.028C81.3791 172.305 81.1883 176.599 81.6675 180.861C82.2208 185.823 83.6441 190.479 85.7991 194.974C87.7849 199.12 90.3449 202.96 93.2745 206.491C94.8418 208.38 96.505 210.218 98.5512 211.6C100.18 212.7 102.083 213.425 103.915 214.123C106.897 217.107 110.724 219.364 114.464 221.166C120.628 224.13 127.312 225.766 134.073 226.586C140.987 227.42 147.971 227.219 154.827 226.028C161.38 224.893 168.402 221.991 172.438 216.462C172.786 215.986 172.138 215.537 171.712 215.733C160 221.166 146.839 222.584 134.073 220.87C128.118 220.071 122.257 218.422 116.82 215.86C112.231 213.7 108.36 210.558 104.242 207.713C103.441 206.643 102.631 205.591 101.708 204.614L100.267 203.1C99.1903 201.962 98.133 200.809 97.1716 199.565C94.2018 195.729 91.7424 191.378 90.1181 186.801C86.9592 177.89 87.8134 168.217 88.3717 158.931L88.4201 158.112C88.9948 148.18 89.9312 138.282 91.2282 128.42C91.7677 124.316 92.3678 120.218 93.0252 116.13C94.0786 114.412 95.2038 112.75 96.4632 111.193C95.4382 115.184 98.9871 120.734 103.339 118.1C108.321 113.83 108.081 106.938 112.257 101.71C116.586 95.0072 146.456 81.9715 155.336 80.1409C153.906 82.2271 151.292 83.6802 150.683 86.1424C139.761 95.8146 157.564 100.964 163.123 87.1792C163 91.7684 162.536 96.3177 161.518 100.797C160.034 104.911 158.87 116.831 166.309 113.234C169.869 114.265 172.584 111.224 173.031 107.795C175.602 115.545 173.171 127.929 177.886 133.641C179.333 135.143 181.568 134.143 182.32 132.427C186.682 131.282 186.309 126.185 186.839 122.537C190.817 137.078 195.796 147.172 196.481 162.34C193.403 166.733 200.155 169.963 203.053 166.443C207.12 160.554 203.37 152.502 202.412 146.054C203.556 145.995 204.689 145.486 205.634 144.374C206.149 146.397 205.853 149.062 205.68 151.258C208.259 161.364 218.064 154.891 217.657 146.692C218.081 149.006 218.402 151.342 218.605 153.695C216.712 155.879 215.308 158.493 214.478 161.267C213.881 163.272 215.914 164.474 217.465 164.183C218.291 167.007 221.872 169.044 224.228 166.345C226.556 163.985 226.96 160.575 227.145 157.18C227.47 156.834 227.667 156.382 227.635 155.834C227.605 155.319 227.479 154.884 227.279 154.516C227.319 153.822 227.368 153.141 227.443 152.483C229.246 158.101 228.073 163.989 227.916 169.744C224.732 171.54 221.099 172.308 217.45 173.066L216.92 173.176C215.793 173.412 215.435 175.096 216.285 175.803C214.025 178.02 212.075 180.665 210.172 183.104C207.646 186.341 205.229 189.705 202.88 193.076L201.499 195.057C197.47 200.81 191.899 208.603 194.394 215.689C194.734 216.662 196.153 217.012 196.706 215.99C198.522 212.63 199.536 208.929 201.26 205.53C202.953 202.196 205.061 199.106 207.15 196.017L208.356 194.227C210.364 191.236 212.352 188.214 214.195 185.134L215.478 183C216.684 180.987 217.878 178.906 218.767 176.741C221.931 177.507 225.244 176.958 228.279 175.635L228.318 175.846L228.394 176.227C228.828 178.056 231.346 179.306 232.954 178.109C236.803 175.2 238.37 170.871 238.78 166.241C239.555 164.933 240.212 163.553 240.749 162.123C241.002 164.974 242.1 167.738 245.481 167.653C251.349 167.17 251.926 161.615 250.339 156.09C257.286 158.217 258.1 148.369 255.908 143.179C256.721 142.936 257.476 142.45 257.907 141.795L258.267 142.428C259.602 144.745 261.116 146.994 263.225 148.197C266.172 149.877 270.457 147.796 270.261 144.096C269.63 138.068 264.358 133.475 261.148 128.644C261.719 128.725 262.313 128.704 262.896 128.596C269.312 132.183 272.373 123.74 270.113 118.848C268.458 114.454 265.461 110.675 262.249 107.343L263.191 107.907C264.89 108.911 266.784 109.879 268.652 109.485C280.874 117.535 284.885 103.997 271.171 99.7658L271.176 99.7027C272.552 98.3722 273.149 96.2664 272.079 94.163C277.11 95.934 284.291 91.9269 279.858 86.4503C276.965 83.7206 273.553 81.3725 269.77 80.1437C269.959 79.1387 270.02 78.116 269.941 77.087L270.168 77.1177C272.556 77.4624 275.5 78.4397 276.972 75.8623C277.72 74.5644 277.631 72.4255 276.408 71.4165C272.192 67.942 267.381 65.0521 262.157 63.8805C261.965 63.2429 261.765 62.6089 261.553 61.9782C266.011 61.8951 271.015 55.9612 265.895 52.599C261.394 50.3002 256.757 48.8217 251.675 48.9588C254.654 46.0139 252.895 40.6758 248.933 39.8552C251.528 34.3173 245.118 31.46 240.336 32.3333C240.512 29.8729 239.198 27.1305 236.669 26.5129C237.996 18.7272 229.77 19.4637 224.617 21.3093C226.342 18.3076 224.569 14.7763 221.525 13.7237C216.54 12.5926 211.769 17.3526 207.973 20.2716C209.267 17.2263 208.176 14.4186 205.093 13.2051C201.917 11.9595 198.495 14.3667 195.845 16.0025C194.404 14.1888 191.944 13.5975 189.737 13.7096C189.502 13.0285 189.155 12.4604 188.711 12.0113C188.724 7.81438 181.595 5.50703 179.107 9.41649C178.684 6.69813 177.568 4.08248 175.99 2.22016ZM86.8008 78.3417L86.7186 78.7935C86.6132 78.887 86.5141 78.9856 86.4128 79.0815C86.095 79.1568 85.7882 79.2363 85.4974 79.3176C85.9211 78.9739 86.3575 78.6555 86.8008 78.3417ZM81.2979 67.3277L81.3947 67.462C81.4112 67.4842 81.4281 67.506 81.4457 67.5271C81.1771 67.629 80.909 67.7332 80.6421 67.8408L80.2423 68.0047L80.1013 68.067C80.4984 67.8172 80.897 67.5697 81.2979 67.3277ZM145.471 11.881L145.711 11.9407C145.787 11.9594 145.86 11.9767 145.927 11.9927C145.951 11.999 145.974 12.0017 145.996 12.0109L145.933 11.9972C146.047 12.0839 146.197 12.1861 146.321 12.2678C146.199 12.2579 146.077 12.246 145.955 12.2393C145.795 12.1194 145.633 11.9999 145.471 11.881Z" fill="black"/>
<path fill-rule="evenodd" clip-rule="evenodd" d="M122.491 184.417C121.823 183.252 120.282 182.174 118.872 182.34C112.554 183.08 112.566 190.741 115.005 195.213C117.167 199.179 121.643 201.506 126.123 201.166C130.829 200.809 134.84 198.042 136.604 193.638C137.771 190.725 138.311 185.348 135.206 183.39C135.148 183.353 135.054 183.363 135.008 183.415C133.519 185.147 133.46 187.748 132.157 189.676C130.945 191.47 129.062 192.951 126.857 193.179C125.209 193.35 123.542 192.756 122.898 191.277C122.549 190.477 122.589 190.042 122.72 189.491L122.839 189.013C123.251 187.336 123.437 186.061 122.491 184.417ZM120.804 150.821C117.509 152.824 112.489 157.494 116.032 162.461C120.204 166.839 126.211 161.819 129.172 159.548C131.917 157.788 135 162.314 132.453 164.369C111.065 180.208 102.385 151.345 119.137 148.466C120.981 148.148 121.667 150.201 120.804 150.821ZM155.595 137.085C153.572 134.051 148.956 134.498 147.843 138.099C147.239 140.05 148.072 141.803 148.029 143.752C147.993 145.397 148.101 147.231 148.605 148.824C149.755 152.459 153.023 155.025 156.889 154.919C160.743 154.813 164.136 152.374 165.75 148.938C167.37 145.489 167.027 141.92 165.845 138.413C165.788 138.244 165.567 138.162 165.433 138.304C164.036 139.791 163.013 141.358 161.954 143.022L160.87 144.727C160.041 146.011 158.836 147.65 157.288 147.548L157.055 147.526C156.624 147.488 156.69 147.574 156.359 146.987C156.206 146.715 156.233 146.211 156.159 145.891L156.133 145.783L156.148 145.724C156.18 145.569 156.213 145.277 156.239 144.77L156.244 144.657C156.357 142.285 157.027 139.236 155.595 137.085ZM104.334 139.106C104.696 135.225 99.241 134.363 97.4273 137.234C96.4813 138.732 96.2059 140.614 95.9968 142.396L95.8989 143.242C95.6843 145.073 95.5993 146.978 96.3937 148.685C97.645 151.374 100.366 152.796 103.301 152.571C106.105 152.356 108.662 150.73 110.01 148.261C111.213 146.06 112.407 141.76 110.947 139.464C110.859 139.324 110.683 139.307 110.562 139.414C109.183 140.639 108.958 142.873 108.138 144.47C107.292 146.116 106.009 147.72 104.064 147.97C102.203 148.209 101.493 147.193 101.967 145.419C102.58 143.128 104.103 141.57 104.334 139.106ZM154.121 114.011L153.229 113.669C150.172 112.514 145.975 111.179 143.49 113.665C141.957 115.198 141.665 117.456 142.76 119.327C144.085 121.593 146.463 121.649 148.76 121.983C151.372 122.363 154.029 123.085 156.461 124.114C159.2 125.273 161.743 126.718 164.234 128.333C166.6 129.867 168.96 132.374 171.794 132.846C171.909 132.865 172.04 132.816 172.071 132.689C172.714 129.917 170.926 127.191 169.329 125.028C167.399 122.411 165.059 120.263 162.444 118.337C159.92 116.478 157.036 115.134 154.121 114.011ZM98.5953 123.863L98.3228 123.815C96.4692 123.506 94.7894 123.577 93.3925 125.046C92.3262 126.166 91.9152 127.618 92.4235 129.099C92.8925 130.465 93.9413 131.854 95.4636 132.14C100.603 133.108 106.295 132.947 111.46 132.215C113.823 131.88 116.207 131.47 118.508 130.823L119.567 130.516C121.489 129.967 123.689 129.393 125.085 127.98C125.587 127.472 125.297 126.745 124.697 126.51C122.262 125.555 118.923 126.063 116.326 125.989C113.306 125.902 110.28 125.676 107.274 125.364C104.335 125.059 101.493 124.394 98.5953 123.863Z" fill="black"/>
<path fill-rule="evenodd" clip-rule="evenodd" d="M81.7569 153.479C87.054 158.954 95.8967 160.524 102.944 157.588C121.04 150.026 112.183 126.439 98.227 120.105C96.4835 119.67 94.155 118.639 92.0316 118.405C91.8396 118.311 91.4217 118.584 90.9151 118.325C75.5267 120.044 72.0223 143.937 81.7569 153.479ZM140.123 154.88C146.065 162.761 157.109 165.194 166.133 161.529C183.961 154.507 177.639 133.592 165.441 125.392C139.675 115.707 129.034 140.348 140.123 154.88ZM178.77 137.417C178.787 137.409 178.804 137.404 178.82 137.397C178.726 137.355 178.631 137.314 178.538 137.272C178.568 137.352 178.602 137.431 178.631 137.51C178.678 137.479 178.719 137.441 178.77 137.417ZM69.4918 128.897C70.9465 128.9 73.0476 129.139 74.2518 130.148C77.2212 120.132 88.1818 110.861 97.7138 117.621C105.22 120.035 110.791 125.391 113.956 132.51C119.664 129.114 128.64 130.564 133.589 135.055C136.831 124.342 144.809 120.59 154.305 120.035C164.669 118.338 175 128.406 178.223 136.483C180.904 136.177 184.908 135.325 187.43 136.979C203.794 132.687 232.404 130.32 235.73 132.704C238.101 133.615 239.402 139.212 236.091 139.513C233.204 139.104 236.428 135.413 233.518 135.01C218.02 134.049 202.975 137.171 187.64 138.48C186.271 140.323 181.847 140.939 179.488 140.199C183.204 153.9 175.182 163.221 163.159 166.014C144.544 170.29 128.348 153.634 133.216 136.309C127.577 133.503 121.09 133.624 114.947 135.102C125.213 172.889 64.3685 171.193 73.8713 131.444C67.5473 134.59 66.1738 129.532 69.4918 128.897Z" fill="black"/>
</svg>
