<svg viewBox="0 0 222 169" fill="none" xmlns="http://www.w3.org/2000/svg">
<path d="M62.1715 111.684C65.3693 116.285 67.6242 122.047 66.6562 127.243C65.7161 132.452 61.553 137.094 56.6576 140.914C51.762 144.735 46.1292 147.665 41.2001 146.811C36.2825 145.928 32.0636 141.194 27.8892 136.898C23.7266 132.575 19.5805 128.68 18.0859 123.753C16.619 118.837 17.8152 112.862 20.7716 107.749C23.7118 102.597 28.4123 98.3061 33.6863 97.1689C38.9879 96.0423 44.863 98.0678 49.8456 100.822C54.8559 103.588 58.9736 107.083 62.1715 111.684Z" fill="#9FD8E5"/>
<path d="M70.1152 27.9444C75.0978 35.1361 78.6064 44.1459 77.086 52.2776C75.609 60.4273 69.1028 67.6988 61.4548 73.6844C53.8069 79.67 45.01 84.2652 37.3183 82.937C29.6446 81.5655 23.0687 74.1664 16.5616 67.4545C10.0725 60.6994 3.60872 54.6136 1.28515 46.9078C-0.995063 39.2201 0.882968 29.8694 5.50681 21.8647C10.1054 13.7988 17.4497 7.07898 25.6832 5.28895C33.9601 3.51702 43.126 6.67496 50.8974 10.9749C58.7122 15.2928 65.1327 20.7527 70.1152 27.9444Z" fill="#9093D1"/>
<path d="M116.076 119.141C117.675 121.44 118.802 124.321 118.318 126.919C117.848 129.524 115.766 131.845 113.319 133.756C110.871 135.665 108.054 137.131 105.59 136.703C103.131 136.263 101.022 133.895 98.9346 131.748C96.8526 129.586 94.7797 127.638 94.0326 125.175C93.2996 122.717 93.8975 119.729 95.3755 117.173C96.8455 114.597 99.1957 112.452 101.833 111.883C104.484 111.32 107.421 112.332 109.912 113.71C112.418 115.092 114.476 116.84 116.076 119.141Z" fill="#9093D1"/>
<path d="M147.34 12.4915C149.918 16.1999 151.736 20.8441 150.955 25.0328C150.197 29.2308 146.842 32.9734 142.895 36.0526C138.95 39.1318 134.409 41.494 130.437 40.8049C126.472 40.0937 123.073 36.2774 119.707 32.8153C116.352 29.331 113.011 26.1915 111.806 22.2199C110.623 18.2576 111.588 13.441 113.97 9.31969C116.341 5.16678 120.13 1.70902 124.38 0.791812C128.653 -0.116076 133.389 1.51658 137.405 3.73673C141.444 5.96621 144.763 8.78314 147.34 12.4915Z" fill="#9093D1"/>
<path d="M131.231 64.1642C134.429 68.765 136.684 74.5268 135.716 79.7234C134.776 84.9317 130.613 89.5748 125.717 93.395C120.822 97.2151 115.189 100.146 110.26 99.2905C105.342 98.4087 101.123 93.674 96.9494 89.3788C92.7864 85.056 88.6404 81.1609 87.1458 76.2336C85.6789 71.3178 86.875 65.3423 89.8313 60.2291C92.7713 55.0769 97.4727 50.787 102.746 49.6491C108.048 48.5228 113.923 50.5483 118.906 53.3026C123.916 56.0686 128.033 59.5636 131.231 64.1642Z" fill="#F7859C"/>
<path d="M213.765 112.821C218.748 120.012 222.256 129.023 220.736 137.155C219.259 145.303 212.753 152.575 205.105 158.561C197.457 164.546 188.66 169.141 180.968 167.813C173.295 166.442 166.719 159.043 160.212 152.331C153.723 145.576 147.259 139.49 144.935 131.784C142.656 124.097 144.533 114.745 149.157 106.741C153.755 98.6751 161.1 91.9554 169.333 90.1655C177.61 88.3936 186.777 91.5515 194.548 95.8514C202.363 100.169 208.783 105.629 213.765 112.821Z" fill="#FFDBB4"/>
</svg>
