<svg  viewBox="0 0 195 283" fill="none" xmlns="http://www.w3.org/2000/svg">
<path d="M164.957 104.846C164.719 101.212 165.421 97.2476 167.772 94.6774C170.109 92.0916 174.096 90.8997 178.215 90.4118C182.335 89.9238 186.568 90.1782 189.091 92.3061C191.598 94.4446 192.373 98.4942 193.275 102.285C194.161 106.087 195.184 109.645 194.336 112.89C193.474 116.119 190.725 119.047 187.268 120.904C183.805 122.79 179.634 123.605 176.226 122.471C172.805 121.322 170.147 118.226 168.25 115.024C166.341 111.806 165.195 108.479 164.957 104.846Z" fill="#9093D1"/>
<path d="M0.756046 156.303C0.280263 149.036 1.6854 141.107 6.38521 135.967C11.0613 130.795 19.032 128.412 27.2712 127.436C35.5106 126.46 43.9778 126.969 49.0233 131.224C54.0367 135.501 55.5874 143.601 57.391 151.182C59.1623 158.786 61.2103 165.902 59.5128 172.393C57.7912 178.851 52.292 184.706 45.3762 188.422C38.4517 192.192 30.1107 193.821 23.2933 191.556C16.4521 189.258 11.1343 183.066 7.34122 176.661C3.52418 170.223 1.23196 163.57 0.756046 156.303Z" fill="#F7859C"/>
<path d="M94.9991 246.555C94.5225 239.288 95.928 231.359 100.628 226.219C105.304 221.047 113.275 218.664 121.515 217.688C129.753 216.712 138.221 217.221 143.265 221.474C148.279 225.752 149.83 233.852 151.634 241.433C153.404 249.038 155.454 256.154 153.756 262.645C152.034 269.102 146.534 274.958 139.618 278.673C132.694 282.442 124.354 284.072 117.536 281.807C110.694 279.51 105.376 273.318 101.584 266.911C97.7671 260.473 95.4743 253.822 94.9991 246.555Z" fill="#F7859C"/>
<path d="M48.8786 46.4412C48.1534 35.0922 50.3705 22.7052 57.7314 14.6655C65.055 6.57665 77.5227 2.83516 90.4068 1.29096C103.29 -0.253118 116.526 0.521209 124.404 7.15374C132.23 13.8221 134.634 26.4695 137.435 38.3055C140.184 50.1774 143.368 61.2869 140.697 71.4272C137.989 81.5184 129.377 90.6765 118.555 96.4956C107.72 102.4 94.676 104.966 84.0227 101.444C73.333 97.8729 65.0353 88.2145 59.1216 78.2185C53.1706 68.1733 49.6039 57.7903 48.8786 46.4412Z" fill="#9FD8E5"/>
<path d="M90.9588 156.304C90.4822 149.037 91.8878 141.108 96.5877 135.968C101.263 130.796 109.235 128.413 117.474 127.437C125.712 126.461 134.181 126.97 139.225 131.223C144.239 135.502 145.79 143.602 147.594 151.183C149.364 158.787 151.413 165.903 149.716 172.394C147.994 178.851 142.494 184.707 135.578 188.422C128.654 192.191 120.314 193.821 113.496 191.556C106.654 189.259 101.336 183.067 97.5436 176.66C93.7268 170.224 91.434 163.571 90.9588 156.304Z" fill="#FFDBB4"/>
</svg>
